<svg xmlns="http://www.w3.org/2000/svg" aria-hidden="true" style="position:absolute;width:0;height:0;overflow:hidden"><defs><symbol id="icon-triangle-right" viewBox="0 0 31 32"><path d="m11.52 25.401 10.24-8.96-10.24-8.96v17.92z"/></symbol><symbol id="icon-down-arrow" viewBox="0 0 31 32"><path d="m23.945 17.409-1.81-1.81-5.495 5.495V8.824h-2.56v12.27l-5.495-5.495-1.81 1.81 8.585 8.585 8.585-8.585z"/></symbol><symbol id="icon-logo" viewBox="0 0 110 32"><path d="M16.403.142c.434-.05.936.047 1.354.174.945.288 1.714.905 2.169 1.785.474.902.564 1.957.252 2.927-.397 1.196-1.247 1.797-2.309 2.35l.012 3.489c.759.231 1.498.495 2.187.894 1.584.919 2.669 2.467 3.123 4.23a7.205 7.205 0 0 1-.76 5.459c-.887 1.493-2.3 2.597-3.993 3.019-2.211.552-4.086-.047-5.986-1.176a156.6 156.6 0 0 0-2.489 2.725c.366.864.487 1.77.244 2.687-.237.897-.866 1.666-1.67 2.121-.901.51-1.928.603-2.916.321-.981-.281-1.805-.889-2.284-1.801-.472-.897-.511-1.949-.206-2.907.348-1.089 1.057-1.759 2.053-2.257 1.072-.419 1.958-.281 3.005.096.872-.917 1.693-1.88 2.574-2.789-.968-1.898-1.281-3.515-.778-5.606-1.096-.511-2.153-1.108-3.249-1.62-.586.61-1.301 1.028-2.142 1.169-1.003.169-2.061-.105-2.885-.694a3.671 3.671 0 0 1-1.486-2.493c-.135-.97.12-2.038.741-2.803.64-.789 1.634-1.265 2.637-1.37a3.727 3.727 0 0 1 2.734.836c.976.818 1.258 1.834 1.376 3.045 1.039.637 2.229 1.129 3.312 1.698 1.409-1.665 2.439-2.191 4.492-2.824l.002-3.463a4.767 4.767 0 0 1-1.055-.561 3.715 3.715 0 0 1-1.473-2.501 3.76 3.76 0 0 1 .779-2.782C14.446.669 15.353.282 16.404.143zm4.528 17.225a4.35 4.35 0 1 0-8.663.76 4.35 4.35 0 0 0 8.662-.76zM102.107 11.958c.708.001 1.415.011 2.124.029l-.004 3.742c.546-.424 1.14-.739 1.831-.843.933-.141 1.884.1 2.637.669.908.687 1.384 1.844 1.523 2.949.175 1.401-.154 2.749-1.019 3.866-.574.554-1.263.941-2.057 1.072-1.165.191-2.088-.216-2.998-.894l-.004.817-2.032-.003-.001-11.404zm3.64 4.904c-.632.21-1.07.51-1.378 1.118-.342.675-.365 1.508-.099 2.211.204.538.585 1.004 1.118 1.244.385.175.749.18 1.164.155.66-.249 1.103-.569 1.402-1.229.311-.689.307-1.52.011-2.214-.228-.533-.632-.963-1.177-1.174-.341-.131-.682-.149-1.042-.111zM41.272 11.936c1.246 3.84 2.84 7.575 4.055 11.425l-2.296.003c-.269-.822-.529-1.752-.939-2.512-.268-.115-.586-.076-.873-.073a122.7 122.7 0 0 1-3.323-.012c-.348.849-.628 1.722-.903 2.596l-2.339-.002c1.221-3.833 2.677-7.617 3.996-11.42.872.019 1.749-.001 2.622-.005zm-1.308 2.839c-.483 1.374-.934 2.768-1.464 4.125l1.681-.001 1.306-.015c-.184-.518-1.25-3.88-1.524-4.109zM89.685 11.961l2.196.013c-.03 2.647-.007 5.298-.007 7.945-.001 1.093.11 2.287-.013 3.365l-.121.083h-2.058l-.004-4.889c-1.645-.046-3.303-.005-4.949-.003l.001 4.894-2.209-.004.009-11.401 2.2.005.002 4.662h4.957l-.003-4.67zM93.202 15.121c.729.021 1.46.013 2.188.017-.009 1.165-.193 4.384.089 5.347.111.38.333.728.693.913.541.278 1.09.117 1.628-.072.238-.266.443-.515.561-.859.386-1.123.18-4.006.174-5.343.694.019 1.391.004 2.085 0-.016.8-.003 1.603-.004 2.404l.011 5.834c-.683.01-1.365.005-2.047-.015l-.063-.074a1.94 1.94 0 0 0-.018-.487c-.639.277-1.209.697-1.936.712-.843.017-1.758-.245-2.363-.852-.459-.459-.739-1.076-.883-1.703-.31-1.348-.127-4.332-.113-5.824zM63.686 14.891c1.089-.085 2.224-.008 3.104.725.617.514.816 1.13.883 1.897l-1.968-.002c-.113-.21-.226-.454-.404-.619a1.505 1.505 0 0 0-1.078-.377c-.298.016-.679.135-.865.387-.113.154-.175.311-.132.503.224 1.009 2.79.884 3.607 1.419.52.341.919.951 1.034 1.56a2.289 2.289 0 0 1-.409 1.775c-.627.865-1.593 1.175-2.599 1.329-.931.056-2.011-.194-2.756-.761-.699-.532-.95-1.185-1.045-2.025.663.001 1.326-.005 1.989-.018.039.125.082.245.145.361.289.533.865.651 1.4.808.353-.081.831-.172 1.082-.457.151-.172.204-.471.14-.691-.245-.843-2.703-.943-3.556-1.468-.505-.311-.876-.764-1.011-1.349-.121-.53-.075-1.125.223-1.59.538-.84 1.28-1.185 2.216-1.408zM76.93 14.889c.62-.05 1.227-.047 1.831.117.697.189 1.438.578 1.79 1.239.169.317.3.886.186 1.237-.565.122-1.255.04-1.835.033-.085-.287-.158-.509-.391-.707a1.415 1.415 0 0 0-1.062-.322c-.3.031-.685.178-.852.447-.1.16-.141.325-.078.509.362 1.068 2.535.814 3.38 1.297.538.308.988.848 1.141 1.454.164.65.056 1.372-.319 1.931-.56.835-1.449 1.149-2.388 1.331-.922.114-1.989-.082-2.759-.613-.791-.545-1.028-1.229-1.206-2.123l1.973-.015c.12.302.229.537.485.746.341.279.745.406 1.184.347.341-.045.676-.202.88-.487.133-.187.2-.414.136-.642-.247-.878-2.426-.823-3.29-1.288-.584-.315-1.046-.838-1.231-1.481a2.017 2.017 0 0 1 .196-1.599c.477-.81 1.353-1.206 2.231-1.409zM52.641 12.857c.655.023 1.315.009 1.97.011-.007.74.004 1.48.032 2.219l1.944.001-.004 1.694-1.851-.001c.001 1.066-.243 3.817.246 4.641.382.301 1.145.189 1.609.183l-.007 1.404c.004.145.004.218-.07.344-.259.124-.524.152-.81.154-.752.007-1.791-.129-2.331-.693-1.086-1.131-.739-4.457-.734-6.035l-1.254.002.004-1.698 1.249.008.007-2.236zM69.54 12.848l1.934.011c-.015.741.016 1.485.03 2.226l1.976-.004-.003 1.702-1.859-.001c.023 1.015-.226 3.85.234 4.617.494.295 1.113.216 1.669.215-.007.489.003.979.005 1.469l-.023.186c-.191.202-.486.194-.747.2-.794.019-1.891-.107-2.467-.71-1.075-1.126-.74-4.405-.731-5.978l-1.323.001c-.017-.564-.01-1.129-.015-1.692l1.318.007.004-2.249zM27.821 11.582c.102-.005.2-.007.302.008.316.046.628.198.802.476.185.294.21.687.235 1.028.125 1.688.032 3.444.032 5.138 0 1.384.153 3.26-.104 4.592-.081.419-.359.619-.691.846-.127.015-.259.033-.387.026a1.043 1.043 0 0 1-.74-.361c-.183-.216-.177-.648-.193-.919-.116-1.942-.018-3.946-.016-5.893.001-1.107-.151-3.225.082-4.213.083-.353.402-.539.68-.727zM50.243 15.058l.278-.003c.329.368.166 1.535.155 2.018-.696-.007-1.354-.035-1.899.471-1.023.949-.678 4.425-.688 5.82-.548-.005-1.617.195-2.035-.154l-.022-.346c.01-2.586-.055-5.169-.038-7.754.664.021 1.33.007 1.994.003l-.023 1.142c.123-.177.246-.366.389-.527.503-.568 1.186-.619 1.891-.669zM57.795 15.092l2.086.001.005 8.275-2.11-.003.019-8.273zM24.906 14.293c.343.063.645.192.845.489.308.459.316 4.955.162 5.596-.084.351-.388.522-.675.691-.33-.02-.763-.049-.983-.335-.327-.425-.3-5.203-.114-5.802.108-.348.466-.495.765-.639zM58.701 11.683a1.153 1.153 0 1 1 .27 2.29 1.153 1.153 0 0 1-.27-2.29z"/></symbol><symbol id="icon-facebook" viewBox="0 0 32 32"><path d="M31.997 16.09C31.997 7.2 24.835 0 15.994 0 7.162 0 0 7.2 0 16.09c0 8.035 5.846 14.698 13.498 15.907V20.746H9.437V16.09h4.061v-3.542c0-4.032 2.39-6.259 6.038-6.259 1.757 0 3.581.307 3.581.307v3.965h-2.016c-1.987 0-2.602 1.238-2.602 2.515v3.014h4.435l-.71 4.656h-3.725v11.251c7.642-1.21 13.498-7.872 13.498-15.907z"/></symbol><symbol id="icon-instagram" viewBox="0 0 32 32"><path d="M16 2.881c4.275 0 4.781.019 6.462.094 1.563.069 2.406.331 2.969.55a4.952 4.952 0 0 1 1.837 1.194 5.015 5.015 0 0 1 1.2 1.838c.219.563.481 1.412.55 2.969.075 1.688.094 2.194.094 6.463s-.019 4.781-.094 6.463c-.069 1.563-.331 2.406-.55 2.969a4.94 4.94 0 0 1-1.194 1.837 5.02 5.02 0 0 1-1.837 1.2c-.563.219-1.413.481-2.969.55-1.688.075-2.194.094-6.463.094s-4.781-.019-6.463-.094c-1.563-.069-2.406-.331-2.969-.55a4.952 4.952 0 0 1-1.838-1.194 5.02 5.02 0 0 1-1.2-1.837c-.219-.563-.481-1.413-.55-2.969-.075-1.688-.094-2.194-.094-6.463s.019-4.781.094-6.463c.069-1.563.331-2.406.55-2.969a4.964 4.964 0 0 1 1.194-1.838 5.015 5.015 0 0 1 1.838-1.2c.563-.219 1.412-.481 2.969-.55 1.681-.075 2.188-.094 6.463-.094zM16 0c-4.344 0-4.887.019-6.594.094-1.7.075-2.869.35-3.881.744-1.056.412-1.95.956-2.837 1.85a7.833 7.833 0 0 0-1.85 2.831C.444 6.538.169 7.7.094 9.4.019 11.113 0 11.656 0 16s.019 4.887.094 6.594c.075 1.7.35 2.869.744 3.881.413 1.056.956 1.95 1.85 2.837a7.82 7.82 0 0 0 2.831 1.844c1.019.394 2.181.669 3.881.744 1.706.075 2.25.094 6.594.094s4.888-.019 6.594-.094c1.7-.075 2.869-.35 3.881-.744 1.05-.406 1.944-.956 2.831-1.844s1.438-1.781 1.844-2.831c.394-1.019.669-2.181.744-3.881.075-1.706.094-2.25.094-6.594s-.019-4.887-.094-6.594c-.075-1.7-.35-2.869-.744-3.881a7.506 7.506 0 0 0-1.831-2.844A7.82 7.82 0 0 0 26.482.843C25.463.449 24.301.174 22.601.099c-1.712-.081-2.256-.1-6.6-.1z"/><path d="M16 7.781c-4.537 0-8.219 3.681-8.219 8.219s3.681 8.219 8.219 8.219 8.219-3.681 8.219-8.219A8.221 8.221 0 0 0 16 7.781zm0 13.55a5.331 5.331 0 1 1 0-10.663 5.331 5.331 0 0 1 0 10.663zM26.462 7.456a1.919 1.919 0 1 1-3.838 0 1.919 1.919 0 0 1 3.838 0z"/></symbol><symbol id="icon-youtube" viewBox="0 0 46 32"><path d="M44.766 5.029A5.783 5.783 0 0 0 43.3 2.467a5.844 5.844 0 0 0-2.549-1.48C37.175.014 22.856 0 22.856 0S8.564-.027 4.974.918a5.914 5.914 0 0 0-2.549 1.507 5.902 5.902 0 0 0-1.48 2.549C0 8.55 0 15.977 0 15.977s-.014 7.454.918 10.989a5.723 5.723 0 0 0 4.029 4.029c3.617.987 17.882 1 17.882 1s14.305.014 17.882-.918a5.696 5.696 0 0 0 2.549-1.48 5.872 5.872 0 0 0 1.494-2.549c.945-3.576.945-10.989.945-10.989s.055-7.454-.932-11.03zM18.293 22.842V9.14l11.894 6.865-11.894 6.838z"/></symbol><symbol id="icon-header-close-menu" viewBox="0 0 32 32"><path fill="#fff" d="m21.589 8.459-5.657 5.656-5.656-5.656-1.885 1.885L14.047 16l-5.656 5.656 1.885 1.885 5.656-5.656 5.657 5.656 1.885-1.885L17.818 16l5.656-5.656-1.885-1.885z" style="fill:var(--color1, #fff)"/></symbol><symbol id="icon-header-open-menu" viewBox="0 0 32 32"><path fill="#fff" d="M5.333 8h21.333v2.667H5.333V8zm5.334 6.667h16v2.667h-16v-2.667zm6.666 6.666h9.333V24h-9.333v-2.667z" style="fill:var(--color1, #fff)"/></symbol><symbol id="icon-close-modal" viewBox="0 0 32 32"><path d="m29.671 28.728-.943.943a1.333 1.333 0 0 1-1.886 0L16 18.829 5.158 29.671a1.333 1.333 0 0 1-1.886 0l-.943-.943a1.333 1.333 0 0 1 0-1.886L13.171 16 2.329 5.158a1.333 1.333 0 0 1 0-1.886l.943-.943a1.333 1.333 0 0 1 1.886 0L16 13.171 26.842 2.329a1.333 1.333 0 0 1 1.886 0l.943.943a1.333 1.333 0 0 1 0 1.886L18.829 16l10.842 10.842a1.333 1.333 0 0 1 0 1.886z"/></symbol><symbol id="icon-youtube" viewBox="0 0 45 32"><path d="M43.932 5.154a5.349 5.349 0 0 0-3.759-3.768C36.832.469 23.467.454 23.467.454S10.104.439 6.761 1.316a5.466 5.466 0 0 0-3.768 3.793c-.881 3.341-.89 10.27-.89 10.27s-.009 6.963.866 10.27a5.345 5.345 0 0 0 3.761 3.765c3.375.917 16.704.932 16.704.932s13.365.015 16.706-.86a5.356 5.356 0 0 0 3.769-3.761c.883-3.339.89-10.265.89-10.265s.043-6.965-.868-10.306zm-24.74 16.645.011-12.8 11.108 6.411-11.119 6.389z"/></symbol><symbol id="icon-arrow" viewBox="0 0 24 32"><path fill="#fff" d="M.858 31.818a1.603 1.603 0 0 0 1.653-.103l20.8-14.4a1.604 1.604 0 0 0 .506-2.057 1.604 1.604 0 0 0-.506-.573L2.511.285A1.596 1.596 0 0 0 0 1.6v28.8a1.598 1.598 0 0 0 .858 1.417zM3.2 4.654 19.589 16 3.2 27.346V4.655z" style="fill:var(--color1, #fff)"/></symbol><symbol id="icon-logo-icon" viewBox="0 0 32 32"><path d="M17.501 3.14c.384-.041.83.039 1.2.144.838.238 1.518.747 1.922 1.474a2.94 2.94 0 0 1 .224 2.417c-.352.988-1.105 1.484-2.047 1.94l.011 2.881c.673.191 1.328.407 1.939.737a5.666 5.666 0 0 1 2.768 3.493 5.598 5.598 0 0 1-.673 4.507 5.72 5.72 0 0 1-3.539 2.493c-1.959.456-3.621-.038-5.305-.971-.744.742-1.48 1.492-2.206 2.25.325.713.432 1.461.217 2.219-.21.741-.768 1.376-1.48 1.751-.799.421-1.709.498-2.584.264-.869-.232-1.6-.733-2.024-1.487-.418-.741-.453-1.61-.182-2.401.308-.899.936-1.453 1.819-1.864.95-.346 1.736-.232 2.664.079.772-.757 1.5-1.553 2.28-2.304-.858-1.567-1.135-2.902-.689-4.629-.971-.422-1.907-.914-2.879-1.337a3.458 3.458 0 0 1-1.899.965 3.669 3.669 0 0 1-2.556-.573c-.724-.489-1.2-1.233-1.317-2.059-.12-.8.106-1.683.656-2.314.567-.652 1.448-1.045 2.337-1.131a3.468 3.468 0 0 1 2.422.69c.865.675 1.115 1.514 1.22 2.515.921.526 1.975.932 2.935 1.401 1.248-1.375 2.16-1.809 3.98-2.332l.002-2.859a4.29 4.29 0 0 1-.935-.464c-.718-.495-1.189-1.24-1.306-2.065a2.95 2.95 0 0 1 .691-2.297c.601-.702 1.404-1.022 2.336-1.137zm4.011 14.222c-.185-1.967-2.04-3.425-4.152-3.265-2.131.162-3.713 1.908-3.526 3.892s2.072 3.448 4.2 3.262c2.11-.185 3.663-1.922 3.478-3.889zM27.617 12.585c.09-.004.178-.005.267.007.28.038.556.164.71.393.164.243.186.567.209.849.111 1.394.029 2.844.028 4.243 0 1.142.136 2.691-.092 3.791-.072.346-.318.511-.612.698-.112.013-.23.027-.343.021a.952.952 0 0 1-.656-.298c-.162-.178-.157-.535-.171-.759-.103-1.603-.016-3.258-.014-4.866.001-.914-.134-2.663.072-3.479.074-.292.356-.445.603-.6zM25.036 14.825c.303.052.572.158.749.404.273.379.28 4.091.143 4.621-.075.29-.344.431-.599.57-.292-.016-.676-.04-.871-.276-.29-.351-.266-4.296-.101-4.791.096-.287.413-.409.678-.528z"/></symbol><symbol id="icon-arrow-right" viewBox="0 0 30 32"><path fill="#fff" d="m11.292 27.02 3.017 3.017 14.308-14.308L14.309 1.421l-3.017 3.017 9.158 9.158H0v4.267h20.45l-9.158 9.158z"/></symbol><symbol id="icon-arrow-left" viewBox="0 0 30 32"><path fill="#fff" d="m18.575 27.02-9.158-9.158h20.45v-4.267H9.417l9.158-9.158-3.017-3.017L1.25 15.728l14.308 14.308 3.017-3.017z"/></symbol></defs></svg>